<svg version="1.1" id="Layer_1" xmlns="http://www.w3.org/2000/svg" xmlns:xlink="http://www.w3.org/1999/xlink" x="0px" y="0px"
	 width="100%" viewBox="0 0 104 102" enable-background="new 0 0 104 102" xml:space="preserve">
<!-- <path fill="#000000" opacity="1.000000" stroke="none" 
	d="
M68.000000,103.000000 
	C46.333332,103.000000 25.166395,102.950455 4.000360,103.065926 
	C1.498910,103.079575 0.927683,102.500107 0.935339,99.999802 
	C1.033325,68.000099 1.033325,35.999897 0.935339,4.000198 
	C0.927683,1.499891 1.499926,0.927950 4.000192,0.935395 
	C36.666573,1.032663 69.333435,1.032663 101.999809,0.935395 
	C104.500076,0.927950 105.072319,1.499891 105.064667,4.000198 
	C104.966675,35.999897 104.966675,68.000099 105.064659,99.999802 
	C105.072311,102.500107 104.504356,103.103302 101.999046,103.068108 
	C90.834579,102.911255 79.666664,103.000000 68.000000,103.000000 
z"/> -->
<path fill="#FD7319" opacity="1.000000" stroke="none" 
	d="
M95.688858,70.604736 
	C91.386086,85.178307 80.796875,91.346382 68.249550,86.953873 
	C65.160873,85.872604 62.511406,83.981865 60.031967,81.365860 
	C55.560387,79.890717 51.154091,80.713982 46.444496,80.806335 
	C38.510162,90.286598 25.030991,89.934723 17.438599,83.834358 
	C8.595141,76.728783 7.067482,62.534782 14.402046,54.340000 
	C17.381626,51.010971 21.378294,48.455276 26.578934,47.927628 
	C34.379726,46.970325 41.828930,47.828514 49.641701,47.179619 
	C50.030239,46.923435 50.020676,47.023788 49.970352,47.020992 
	C50.662323,46.378017 50.474518,45.522182 50.312103,44.428642 
	C51.274826,41.035717 52.669289,38.160435 56.495663,36.995823 
	C61.572002,35.904385 66.360466,36.833878 71.526474,36.314240 
	C78.383476,32.426376 78.647354,29.370699 72.570511,24.937866 
	C67.771004,24.111385 63.285530,24.636263 58.419624,24.689095 
	C53.894135,23.877552 51.463032,21.072500 50.150303,17.260742 
	C49.674049,15.877859 49.678917,14.134611 51.302620,13.360654 
	C53.154690,12.477844 54.273060,14.328465 54.629696,15.362186 
	C55.350220,17.450659 55.992176,19.298346 58.663475,20.087608 
	C63.414215,20.918095 67.844673,20.265093 72.653320,20.728546 
	C78.257988,22.720757 82.247200,27.009712 81.484879,30.801468 
	C80.538628,35.508041 78.185928,39.376507 72.318153,39.899834 
	C68.202995,39.140789 64.435974,39.617363 60.372780,39.817116 
	C58.466686,41.582623 55.426636,41.333652 54.912689,44.598267 
	C53.990246,48.216389 56.469524,47.448250 58.056065,47.474262 
	C64.111633,47.573551 70.169312,47.439877 76.630005,47.715702 
	C85.923508,47.946808 93.940025,56.161369 95.053925,63.556961 
	C95.953232,65.991394 95.253860,68.147987 95.688858,70.604736 
z"/>
<!-- <path fill="#FECAA9" opacity="1.000000" stroke="none" 
	d="
M76.819138,47.503044 
	C70.583847,47.912380 64.133148,47.988663 57.683300,47.943928 
	C56.064457,47.932697 53.619579,48.654675 54.531433,45.184349 
	C54.893032,47.537777 56.809769,46.982380 58.351208,46.996426 
	C64.435379,47.051872 70.519753,47.084251 76.819138,47.503044 
z"/>
<path fill="#FECAA9" opacity="1.000000" stroke="none" 
	d="
M49.560013,46.959084 
	C46.605080,49.233303 42.794743,47.615231 39.178585,47.911392 
	C35.441120,48.217480 31.660669,47.998734 27.432423,47.945129 
	C31.788727,45.942448 36.813961,47.434235 41.730930,47.036369 
	C44.169041,46.839085 46.635918,46.997334 49.560013,46.959084 
z"/>
<path fill="#FD8536" opacity="1.000000" stroke="none" 
	d="
M71.494324,36.098667 
	C67.321304,37.879154 62.509533,36.564068 57.330067,36.997200 
	C61.463062,34.860073 66.323509,36.541367 71.494324,36.098667 
z"/>
<path fill="#FEDCC6" opacity="1.000000" stroke="none" 
	d="
M46.561188,81.023514 
	C50.473457,78.964119 55.032013,80.274155 59.706142,80.667694 
	C55.601902,81.030853 51.309216,81.016342 46.561188,81.023514 
z"/>
<path fill="#FEDCC6" opacity="1.000000" stroke="none" 
	d="
M72.851273,20.522961 
	C68.566780,20.866842 64.074631,20.828047 59.303635,20.477390 
	C63.564392,20.157116 68.104004,20.148701 72.851273,20.522961 
z"/>
<path fill="#FEB687" opacity="1.000000" stroke="none" 
	d="
M58.483963,24.909178 
	C62.476379,23.242477 67.021248,24.101648 71.884354,24.588043 
	C67.799004,24.898037 63.371067,24.940685 58.483963,24.909178 
z"/>
<path fill="#FD8536" opacity="1.000000" stroke="none" 
	d="
M60.516972,40.042480 
	C63.690838,38.045124 67.511345,39.130016 71.610962,39.605698 
	C68.284630,39.889393 64.627487,39.948730 60.516972,40.042480 
z"/>
<path fill="#FEB687" opacity="1.000000" stroke="none" 
	d="
M95.908524,70.558823 
	C94.323341,69.071312 95.475677,66.812897 95.052040,64.357811 
	C97.047012,65.774086 95.461517,68.109016 95.908524,70.558823 
z"/>
<path fill="#FECAA9" opacity="1.000000" stroke="none" 
	d="
M50.109535,44.506958 
	C51.122566,44.934654 50.885033,45.853180 50.194084,46.905144 
	C49.963707,46.299557 50.007389,45.580917 50.109535,44.506958 
z"/> -->
<!-- <path fill="#000000" opacity="1.000000" stroke="none" 
	d="
M44.396591,76.698181 
	C40.272408,79.958839 36.880249,83.618378 31.573389,84.006905 
	C22.506636,84.670700 16.160032,79.321007 14.066403,69.199478 
	C12.920822,63.661228 18.494905,55.338348 24.931938,52.956463 
	C25.686913,52.677101 26.416214,52.328354 27.519363,51.930157 
	C43.928589,51.087032 59.984383,51.667252 76.505440,51.688984 
	C83.688400,53.180111 88.541687,56.795506 91.085068,63.690208 
	C91.831566,66.350861 91.381363,68.696716 91.312897,71.434647 
	C87.808517,79.191513 82.882393,84.323708 74.070061,84.003403 
	C68.763206,83.810524 65.067123,80.717224 61.316929,76.997375 
	C55.613369,76.076241 50.198215,76.653175 44.396591,76.698181 
z"/> -->
<!-- <path fill="#FEB687" opacity="1.000000" stroke="none" 
	d="
M76.664627,51.559402 
	C60.930706,51.879387 44.886238,51.923752 28.361540,51.908325 
	C28.645657,51.579277 29.410530,51.073887 30.174271,51.075592 
	C45.567623,51.110039 60.960842,51.202766 76.664627,51.559402 
z"/> -->
<!-- <path fill="#FEB687" opacity="1.000000" stroke="none" 
	d="
M44.461632,76.900436 
	C49.445206,75.033905 55.030067,76.348206 60.775421,76.490402 
	C55.643967,76.884239 50.285053,76.916672 44.461632,76.900436 
z"/> -->
<!-- <path fill="#FECAA9" opacity="1.000000" stroke="none" 
	d="
M91.427643,71.581604 
	C91.123528,69.537674 91.078957,67.226547 91.099930,64.483612 
	C92.676834,66.376602 92.116928,68.850182 91.427643,71.581604 
z"/> -->
<!-- <path fill="#FD7115" opacity="1.000000" stroke="none" 
	d="
M27.705082,65.144157 
	C27.966648,64.875038 27.984566,64.515312 28.059589,64.351601 
	C28.748447,63.044525 28.378773,61.784885 28.736130,60.268936 
	C30.224567,57.854839 30.967056,59.721237 32.010662,60.677422 
	C32.541794,63.406879 32.382416,66.350128 36.668633,65.704758 
	C38.062855,66.569305 39.464321,67.078362 38.347656,68.949211 
	C36.938068,69.818390 35.657890,69.328918 34.140785,69.719269 
	C33.804241,69.865486 33.481415,70.016777 33.303341,70.024826 
	C31.884924,71.297844 32.793633,72.899719 32.309982,74.652527 
	C31.426359,76.003525 30.948109,77.477524 29.052536,76.348969 
	C28.053881,74.291138 28.759815,72.390602 28.170681,70.278702 
	C27.914791,69.975014 28.022810,69.980385 28.022024,70.034454 
	C26.669847,68.963799 25.090832,69.688507 23.323509,69.690704 
	C20.485712,68.996025 20.595282,67.702797 22.696583,65.977921 
	C24.432556,65.175583 25.976768,65.702095 27.705082,65.144157 
z"/> -->
<!-- <path fill="#FD7D29" opacity="1.000000" stroke="none" 
	d="
M72.197372,62.465248 
	C71.936066,60.232246 71.846771,58.412170 74.350716,57.974422 
	C76.516701,57.595760 77.803246,58.857388 78.707047,60.456623 
	C79.625824,62.082348 78.459702,63.280437 77.293831,64.213196 
	C75.076897,65.986862 73.894836,63.664440 72.197372,62.465248 
z"/> -->
<!-- <path fill="#FD7D29" opacity="1.000000" stroke="none" 
	d="
M73.526108,72.239075 
	C76.390144,71.961418 79.165329,71.403709 78.977791,75.385353 
	C78.835060,78.415604 76.432602,78.454056 74.692253,77.863541 
	C72.085747,76.979111 70.956841,74.989334 73.526108,72.239075 
z"/> -->
<!-- <path fill="#FD8536" opacity="1.000000" stroke="none" 
	d="
M78.964821,67.839523 
	C78.557808,64.297768 80.757149,64.941986 82.469719,65.050980 
	C84.340721,65.170052 85.637253,66.424904 85.740082,68.098831 
	C85.798653,69.052177 85.442085,70.848999 83.769226,70.975777 
	C81.637505,71.137321 79.267250,71.465240 78.964821,67.839523 
z"/> -->
<!-- <path fill="#FD7D29" opacity="1.000000" stroke="none" 
	d="
M70.669006,65.070427 
	C71.133392,67.075836 73.145576,68.540245 71.245338,70.249313 
	C69.882462,71.475082 68.394173,71.394379 66.674957,70.124504 
	C64.759987,69.165749 65.806831,67.726128 65.772263,66.240829 
	C65.971931,65.502655 66.103615,65.251549 66.609009,65.040939 
	C67.975624,64.189369 69.239265,64.550285 70.669006,65.070427 
z"/> -->
<!-- <path fill="#FD7319" opacity="1.000000" stroke="none" 
	d="
M45.299427,63.040058 
	C46.191288,63.011314 46.690697,62.992474 47.188675,63.011353 
	C49.042145,63.081638 50.966259,64.420799 50.344902,65.767151 
	C49.268013,68.100555 46.365761,67.395126 44.565342,66.680237 
	C42.097279,65.700249 43.970314,64.230377 45.299427,63.040058 
z"/>
<path fill="#FD7319" opacity="1.000000" stroke="none" 
	d="
M54.944817,66.387939 
	C53.491249,63.305599 55.379501,63.150448 57.295769,63.005920 
	C58.891010,62.885612 60.395256,63.086105 60.913986,64.863930 
	C61.187016,65.799660 61.168633,66.982567 59.675781,66.969933 
	C58.192776,66.957397 56.711071,66.790215 54.944817,66.387939 
z"/> -->
<!-- <path fill="#FFEDE2" opacity="1.000000" stroke="none" 
	d="
M36.844040,65.519234 
	C33.875248,66.345703 31.218138,66.225632 32.082066,61.400967 
	C33.338047,62.712425 33.002106,66.104332 36.844040,65.519234 
z"/>
<path fill="#FE944F" opacity="1.000000" stroke="none" 
	d="
M27.951443,70.385773 
	C29.596476,71.463913 28.806841,73.446274 28.939285,75.645920 
	C27.135185,74.559059 28.384417,72.533073 27.951443,70.385773 
z"/>
<path fill="#FFEDE2" opacity="1.000000" stroke="none" 
	d="
M27.583088,64.932465 
	C27.042131,67.011627 25.186911,65.599190 23.399937,65.901695 
	C24.118206,64.151489 25.823179,65.386642 27.583088,64.932465 
z"/>
<path fill="#FE944F" opacity="1.000000" stroke="none" 
	d="
M23.439262,69.906433 
	C24.478483,68.673851 26.008154,68.802406 27.798782,69.821045 
	C26.630819,70.051704 25.240402,70.014893 23.439262,69.906433 
z"/>
<path fill="#FFEDE2" opacity="1.000000" stroke="none" 
	d="
M32.504028,74.820885 
	C32.228565,73.413345 32.292503,71.827751 32.740852,70.137512 
	C33.031319,71.569527 32.937374,73.106178 32.504028,74.820885 
z"/>
<path fill="#FEDCC6" opacity="1.000000" stroke="none" 
	d="
M70.914795,65.084389 
	C69.788460,65.370384 68.714973,65.239525 67.234634,65.054428 
	C68.085472,63.367657 69.489578,63.557426 70.914795,65.084389 
z"/>
<path fill="#FEDCC6" opacity="1.000000" stroke="none" 
	d="
M65.635887,66.013626 
	C66.070274,66.912254 66.145363,67.989510 66.327682,69.460297 
	C63.801147,69.344345 65.264336,67.538803 65.635887,66.013626 
z"/>
<path fill="#FE944F" opacity="1.000000" stroke="none" 
	d="
M34.197857,69.922951 
	C34.823673,68.947273 36.074097,69.006516 37.684937,69.061432 
	C37.225906,70.653030 35.763119,69.752403 34.197857,69.922951 
z"/>
<path fill="#FE944F" opacity="1.000000" stroke="none" 
	d="
M28.576328,60.131485 
	C28.801104,61.159157 28.689882,62.370811 28.356638,63.885178 
	C28.169853,62.897079 28.205091,61.606274 28.576328,60.131485 
z"/> -->
</svg>